<svg id="Camada_1" data-name="Camada 1" xmlns="http://www.w3.org/2000/svg" viewBox="0 0 1920 300"><title>Prancheta 1</title><path d="M-4.16,853.86a14.31,14.31,0,0,1-6.29-1.44l-53.84-26a14.45,14.45,0,0,1-7.4-8.32A14.49,14.49,0,0,1-71.07,807L185.3,276.07a14.68,14.68,0,0,1,13.16-8.22,14.41,14.41,0,0,1,6.28,1.44l53.85,26a14.59,14.59,0,0,1,6.78,19.43L9,845.64A14.67,14.67,0,0,1-4.16,853.86Z"/><path d="M198.46,267.35v1h0a13.94,13.94,0,0,1,6.07,1.39l53.84,26a14.09,14.09,0,0,1,6.55,18.77L8.54,845.42a14.14,14.14,0,0,1-12.7,7.94A13.87,13.87,0,0,1-10.23,852l-53.85-26a14.08,14.08,0,0,1-6.54-18.77L185.75,276.29a14.18,14.18,0,0,1,12.71-7.94v-1m0,0a15.12,15.12,0,0,0-13.61,8.5L-71.52,806.76a15.1,15.1,0,0,0,7,20.11l53.85,26a14.91,14.91,0,0,0,6.5,1.49,15.1,15.1,0,0,0,13.6-8.5L265.82,315a15.1,15.1,0,0,0-7-20.1l-53.85-26a14.91,14.91,0,0,0-6.5-1.49Z"/><path d="M-175.21,847.59a14.23,14.23,0,0,1-6.28-1.44l-53.85-26a14.45,14.45,0,0,1-7.4-8.32,14.49,14.49,0,0,1,.62-11.12L14.25,269.8a14.69,14.69,0,0,1,13.16-8.22A14.41,14.41,0,0,1,33.69,263l53.85,26a14.57,14.57,0,0,1,6.78,19.43L-162.06,839.37A14.67,14.67,0,0,1-175.21,847.59Z"/><path d="M27.41,261.08v1h0a13.91,13.91,0,0,1,6.07,1.39l53.84,26a14.09,14.09,0,0,1,6.55,18.77l-256.38,530.9a14.16,14.16,0,0,1-12.7,7.94,13.87,13.87,0,0,1-6.07-1.39l-53.84-26a14.07,14.07,0,0,1-6.55-18.77L14.7,270a14.18,14.18,0,0,1,12.71-7.94v-1m0,0a15.12,15.12,0,0,0-13.61,8.5L-242.57,800.49a15.1,15.1,0,0,0,7,20.11l53.85,26a14.91,14.91,0,0,0,6.5,1.49,15.1,15.1,0,0,0,13.6-8.5L94.77,308.68a15.09,15.09,0,0,0-7-20.1l-53.85-26a14.91,14.91,0,0,0-6.5-1.49Z"/><path d="M246.48,832.63a14.31,14.31,0,0,1-6.29-1.44l-53.85-26a14.61,14.61,0,0,1-6.77-19.44L435.94,254.84a14.68,14.68,0,0,1,13.15-8.22,14.42,14.42,0,0,1,6.29,1.44l53.85,26A14.59,14.59,0,0,1,516,293.5L259.63,824.41A14.67,14.67,0,0,1,246.48,832.63Z"/><path d="M449.1,246.12v1a13.86,13.86,0,0,1,6.06,1.39l53.85,26a14.07,14.07,0,0,1,6.55,18.77L259.18,824.19a14.15,14.15,0,0,1-12.7,7.94,13.87,13.87,0,0,1-6.07-1.39l-53.85-26A14.1,14.1,0,0,1,180,786L436.39,255.06a14.18,14.18,0,0,1,12.7-7.94v-1m0,0a15.11,15.11,0,0,0-13.6,8.5L179.12,785.53a15.09,15.09,0,0,0,7,20.11l53.84,26a15.09,15.09,0,0,0,20.11-7L516.46,293.72a15.1,15.1,0,0,0-7-20.1l-53.84-26a15,15,0,0,0-6.51-1.49Z"/><path d="M126.38,742a14.31,14.31,0,0,1-6.29-1.44l-53.84-26a14.57,14.57,0,0,1-6.78-19.44l256.37-530.9A14.68,14.68,0,0,1,329,156a14.27,14.27,0,0,1,6.28,1.44l53.85,26a14.6,14.6,0,0,1,6.78,19.44L139.53,733.83A14.66,14.66,0,0,1,126.38,742Z"/><path d="M329,155.54v1h0a13.77,13.77,0,0,1,6.07,1.39l53.84,26a14.09,14.09,0,0,1,6.55,18.77L139.08,733.61a14.15,14.15,0,0,1-12.7,7.93,13.74,13.74,0,0,1-6.07-1.39l-53.84-26a14.09,14.09,0,0,1-6.55-18.77L316.29,164.47A14.17,14.17,0,0,1,329,156.54v-1m0,0a15.12,15.12,0,0,0-13.61,8.5L59,694.94a15.1,15.1,0,0,0,7,20.11l53.85,26a14.77,14.77,0,0,0,6.5,1.49A15.08,15.08,0,0,0,140,734l256.38-530.9a15.1,15.1,0,0,0-7-20.11L335.5,157a14.77,14.77,0,0,0-6.5-1.49Z"/><path d="M168.08,825.83a14.32,14.32,0,0,1-6.29-1.45l-53.85-26a14.58,14.58,0,0,1-6.77-19.44L357.54,248a14.65,14.65,0,0,1,13.15-8.22,14.28,14.28,0,0,1,6.29,1.44l53.85,26a14.62,14.62,0,0,1,6.78,19.44L181.23,817.61A14.67,14.67,0,0,1,168.08,825.83Z"/><path d="M370.69,239.32v1a13.87,13.87,0,0,1,6.07,1.39l53.85,26a14.06,14.06,0,0,1,6.54,18.77L180.78,817.39a14.17,14.17,0,0,1-12.7,7.94,13.75,13.75,0,0,1-6.07-1.4l-53.85-26a14.09,14.09,0,0,1-6.54-18.77L358,248.25a14.16,14.16,0,0,1,12.7-7.93v-1m0,0a15.11,15.11,0,0,0-13.6,8.5L100.72,778.73a15.09,15.09,0,0,0,7,20.1l53.84,26a15.08,15.08,0,0,0,20.11-7l256.38-530.9a15.11,15.11,0,0,0-7-20.11l-53.84-26a15,15,0,0,0-6.51-1.49Z"/><path d="M-67.65,803.63a14.31,14.31,0,0,1-6.29-1.44l-53.84-26a14.45,14.45,0,0,1-7.4-8.32,14.49,14.49,0,0,1,.62-11.12L121.81,225.84A14.69,14.69,0,0,1,135,217.62a14.41,14.41,0,0,1,6.28,1.44l53.85,26a14.57,14.57,0,0,1,6.78,19.43L-54.5,795.41A14.67,14.67,0,0,1-67.65,803.63Z"/><path d="M135,217.12v1a13.91,13.91,0,0,1,6.07,1.39l53.84,26a14.07,14.07,0,0,1,6.55,18.77L-54.95,795.19a14.14,14.14,0,0,1-12.7,7.94,13.87,13.87,0,0,1-6.07-1.39l-53.84-26a14,14,0,0,1-7.15-8,13.92,13.92,0,0,1,.6-10.73L122.26,226.06A14.18,14.18,0,0,1,135,218.12v-1m0,0a15.12,15.12,0,0,0-13.61,8.5L-135,756.53a15.1,15.1,0,0,0,7,20.11l53.85,26a14.91,14.91,0,0,0,6.5,1.49,15.1,15.1,0,0,0,13.6-8.5L202.33,264.72a15.09,15.09,0,0,0-7-20.1l-53.85-26a14.91,14.91,0,0,0-6.5-1.49Z"/><path d="M359.61,779.35a14.45,14.45,0,0,1-6.29-1.44l-53.85-26a14.58,14.58,0,0,1-6.77-19.44L549.07,201.56a14.68,14.68,0,0,1,13.15-8.22,14.42,14.42,0,0,1,6.29,1.44l53.85,26a14.63,14.63,0,0,1,6.78,19.44L372.76,771.13A14.67,14.67,0,0,1,359.61,779.35Z"/><path d="M562.23,192.84v1a13.86,13.86,0,0,1,6.06,1.39l53.85,26A14.09,14.09,0,0,1,628.69,240L372.31,770.91a14.17,14.17,0,0,1-12.7,7.94,13.87,13.87,0,0,1-6.07-1.39l-53.85-26a14.11,14.11,0,0,1-6.54-18.78l256.37-530.9a14.18,14.18,0,0,1,12.7-7.94v-1m0,0a15.11,15.11,0,0,0-13.6,8.5L292.25,732.25a15.09,15.09,0,0,0,7,20.11l53.84,26a15.09,15.09,0,0,0,20.11-7L629.59,240.44a15.11,15.11,0,0,0-7-20.11l-53.84-26a15,15,0,0,0-6.51-1.49Z"/><path d="M457.69,730a14.27,14.27,0,0,1-6.28-1.44l-53.85-26a14.6,14.6,0,0,1-6.78-19.44l256.38-530.9A14.65,14.65,0,0,1,660.31,144a14.31,14.31,0,0,1,6.29,1.44l53.84,26a14.6,14.6,0,0,1,6.78,19.44L470.85,721.83A14.69,14.69,0,0,1,457.69,730Z"/><path d="M660.31,143.54v1a13.74,13.74,0,0,1,6.07,1.39l53.84,26a14.09,14.09,0,0,1,6.55,18.77L470.4,721.61a14.17,14.17,0,0,1-12.71,7.93,13.77,13.77,0,0,1-6.07-1.39l-53.84-26a14.09,14.09,0,0,1-6.55-18.77L647.61,152.47a14.15,14.15,0,0,1,12.7-7.93v-1m0,0a15.08,15.08,0,0,0-13.6,8.5L390.33,682.94a15.1,15.1,0,0,0,7,20.11l53.85,26a14.77,14.77,0,0,0,6.5,1.49A15.1,15.1,0,0,0,471.3,722l256.37-530.9a15.1,15.1,0,0,0-7-20.11l-53.85-26a14.77,14.77,0,0,0-6.5-1.49Z"/><path d="M496.79,826.22a14.31,14.31,0,0,1-6.29-1.44l-53.84-26a14.57,14.57,0,0,1-6.78-19.44l256.37-530.9a14.67,14.67,0,0,1,13.16-8.22,14.27,14.27,0,0,1,6.28,1.44l53.85,26a14.6,14.6,0,0,1,6.78,19.44L509.94,818A14.65,14.65,0,0,1,496.79,826.22Z"/><path d="M699.41,239.72v1a13.72,13.72,0,0,1,6.06,1.39l53.85,26a14.07,14.07,0,0,1,6.55,18.77L509.49,817.79a14.16,14.16,0,0,1-12.7,7.93,13.74,13.74,0,0,1-6.07-1.39l-53.85-26a14.1,14.1,0,0,1-6.54-18.77L686.7,248.65a14.17,14.17,0,0,1,12.71-7.93v-1m0,0a15.1,15.1,0,0,0-13.61,8.5L429.43,779.12a15.1,15.1,0,0,0,7,20.11l53.85,26a14.77,14.77,0,0,0,6.5,1.49,15.08,15.08,0,0,0,13.6-8.5l256.38-530.9a15.11,15.11,0,0,0-7-20.11l-53.85-26a14.8,14.8,0,0,0-6.5-1.49Z"/><path d="M594.4,812.42a14.45,14.45,0,0,1-6.29-1.44l-53.84-26a14.57,14.57,0,0,1-6.78-19.44l256.37-530.9A14.67,14.67,0,0,1,797,226.41a14.27,14.27,0,0,1,6.28,1.44l53.85,26a14.6,14.6,0,0,1,6.78,19.44L607.55,804.2A14.67,14.67,0,0,1,594.4,812.42Z"/><path d="M797,225.91v1a13.91,13.91,0,0,1,6.07,1.39l53.84,26a14.07,14.07,0,0,1,6.55,18.77L607.1,804a14.16,14.16,0,0,1-12.7,7.94,13.87,13.87,0,0,1-6.07-1.39l-53.84-26a14.09,14.09,0,0,1-6.55-18.77L784.31,234.84A14.17,14.17,0,0,1,797,226.91v-1m0,0a15.12,15.12,0,0,0-13.61,8.5L527,765.32a15.09,15.09,0,0,0,7,20.1l53.85,26a14.91,14.91,0,0,0,6.5,1.49,15.09,15.09,0,0,0,13.6-8.51l256.38-530.9a15.11,15.11,0,0,0-7-20.11l-53.85-26a14.91,14.91,0,0,0-6.5-1.49Z"/><path d="M703.54,774.54a14.45,14.45,0,0,1-6.29-1.44l-53.84-26a14.61,14.61,0,0,1-6.78-19.44L893,196.75a14.68,14.68,0,0,1,13.15-8.22,14.42,14.42,0,0,1,6.29,1.44l53.85,26a14.57,14.57,0,0,1,6.78,19.44L716.69,766.32A14.67,14.67,0,0,1,703.54,774.54Z"/><path d="M906.16,188v1a13.86,13.86,0,0,1,6.06,1.39l53.85,26a14.13,14.13,0,0,1,6.55,18.78L716.24,766.1a14.17,14.17,0,0,1-12.7,7.94,13.87,13.87,0,0,1-6.07-1.39l-53.85-26a14.11,14.11,0,0,1-6.54-18.78L893.45,197a14.18,14.18,0,0,1,12.7-7.94v-1m0,0a15.11,15.11,0,0,0-13.6,8.5L636.18,727.44a15.1,15.1,0,0,0,7,20.11l53.84,26a15.09,15.09,0,0,0,20.11-7L973.52,235.63a15.11,15.11,0,0,0-7-20.11l-53.85-26a15,15,0,0,0-6.51-1.49Z"/><path d="M791.87,777.55a14.37,14.37,0,0,1-6.28-1.44l-53.85-26A14.61,14.61,0,0,1,725,730.67L981.33,199.76a14.69,14.69,0,0,1,13.16-8.22,14.41,14.41,0,0,1,6.28,1.44l53.85,26a14.61,14.61,0,0,1,6.78,19.44L805,769.33A14.69,14.69,0,0,1,791.87,777.55Z"/><path d="M994.49,191v1a13.91,13.91,0,0,1,6.07,1.39l53.84,26a14.1,14.1,0,0,1,6.55,18.78L804.57,769.11a14.16,14.16,0,0,1-12.7,7.94,13.91,13.91,0,0,1-6.07-1.39l-53.84-26a14.09,14.09,0,0,1-6.55-18.78L981.79,200a14.16,14.16,0,0,1,12.7-7.94v-1m0,0a15.12,15.12,0,0,0-13.61,8.5L724.51,730.45a15.11,15.11,0,0,0,7,20.11l53.85,26a14.91,14.91,0,0,0,6.5,1.49,15.12,15.12,0,0,0,13.61-8.5l256.37-530.91a15.1,15.1,0,0,0-7-20.11l-53.85-26a14.91,14.91,0,0,0-6.5-1.49Z"/><path d="M843.7,853.9a14.41,14.41,0,0,1-6.28-1.44l-53.85-26A14.6,14.6,0,0,1,776.79,807l256.38-530.9a14.67,14.67,0,0,1,13.15-8.22,14.31,14.31,0,0,1,6.29,1.44l53.84,26a14.6,14.6,0,0,1,6.78,19.44L856.86,845.68A14.68,14.68,0,0,1,843.7,853.9Z"/><path d="M1046.32,267.39v1a13.87,13.87,0,0,1,6.07,1.39l53.84,26a14.09,14.09,0,0,1,6.55,18.77L856.41,845.46a14.18,14.18,0,0,1-12.71,7.94,13.94,13.94,0,0,1-6.07-1.39l-53.84-26a14.09,14.09,0,0,1-6.55-18.77l256.38-530.9a14.14,14.14,0,0,1,12.7-7.94v-1m0,0a15.1,15.1,0,0,0-13.6,8.5L776.34,806.8a15.1,15.1,0,0,0,7,20.1l53.85,26a14.91,14.91,0,0,0,6.5,1.49,15.12,15.12,0,0,0,13.61-8.5L1113.68,315a15.1,15.1,0,0,0-7-20.11l-53.85-26a14.91,14.91,0,0,0-6.5-1.49Z"/><path d="M977.32,758.64A14.28,14.28,0,0,1,971,757.2l-53.85-26a14.58,14.58,0,0,1-6.78-19.44l256.38-530.91a14.67,14.67,0,0,1,13.15-8.22,14.45,14.45,0,0,1,6.29,1.44l53.85,26a14.6,14.6,0,0,1,6.77,19.43L990.47,750.42A14.67,14.67,0,0,1,977.32,758.64Z"/><path d="M1179.93,172.13v1h0a13.87,13.87,0,0,1,6.07,1.39l53.85,26a14.07,14.07,0,0,1,6.54,18.77L990,750.2a14.16,14.16,0,0,1-12.7,7.94,13.87,13.87,0,0,1-6.07-1.39l-53.85-26A14.12,14.12,0,0,1,910.85,712l256.38-530.91a14.17,14.17,0,0,1,12.7-7.94v-1m0,0a15.11,15.11,0,0,0-13.6,8.5L910,711.54a15.11,15.11,0,0,0,7,20.11l53.84,26a15.09,15.09,0,0,0,20.11-7l256.37-530.91a15.08,15.08,0,0,0-7-20.1l-53.84-26a15,15,0,0,0-6.51-1.49Z"/><path d="M1085.78,725.73a14.28,14.28,0,0,1-6.29-1.44l-53.85-26a14.61,14.61,0,0,1-6.78-19.44L1289.31,118.8a14.66,14.66,0,0,1,13.15-8.22,14.28,14.28,0,0,1,6.29,1.44l53.85,26a14.6,14.6,0,0,1,6.78,19.44L1098.93,717.51A14.68,14.68,0,0,1,1085.78,725.73Z"/><path d="M1302.47,110.08v1h0a13.86,13.86,0,0,1,6.06,1.39l53.85,26a14.12,14.12,0,0,1,6.55,18.77L1098.48,717.29a14.18,14.18,0,0,1-12.7,7.94,13.87,13.87,0,0,1-6.07-1.39l-53.85-26a14.08,14.08,0,0,1-6.55-18.78l270.45-560a14.17,14.17,0,0,1,12.71-7.93v-1m0,0a15.12,15.12,0,0,0-13.61,8.5L1018.41,678.63a15.11,15.11,0,0,0,7,20.11l53.85,26a15.09,15.09,0,0,0,20.11-7l270.45-560a15.11,15.11,0,0,0-7-20.11l-53.85-26a14.94,14.94,0,0,0-6.5-1.49Z"/><path d="M1173.93,729.94a14.23,14.23,0,0,1-6.28-1.44l-53.85-26a14.57,14.57,0,0,1-6.78-19.44L1391.2,94.57a14.67,14.67,0,0,1,13.16-8.22,14.27,14.27,0,0,1,6.28,1.44l53.85,26a14.57,14.57,0,0,1,6.78,19.44L1187.09,721.72A14.69,14.69,0,0,1,1173.93,729.94Z"/><path d="M1404.36,85.85v1a13.94,13.94,0,0,1,6.07,1.39l53.84,26a14.07,14.07,0,0,1,6.55,18.77L1186.64,721.5a14.18,14.18,0,0,1-12.71,7.94,13.91,13.91,0,0,1-6.07-1.39l-53.84-26a14.09,14.09,0,0,1-6.55-18.77l284.18-588.5a14.17,14.17,0,0,1,12.71-7.93v-1m0,0a15.12,15.12,0,0,0-13.61,8.5L1106.57,682.84a15.1,15.1,0,0,0,7,20.11l53.85,26a14.91,14.91,0,0,0,6.5,1.49,15.12,15.12,0,0,0,13.61-8.5l284.18-588.49a15.11,15.11,0,0,0-7-20.11l-53.85-26a14.91,14.91,0,0,0-6.5-1.49Z"/><path d="M1261.69,733.49a14.29,14.29,0,0,1-6.29-1.45l-53.85-26a14.57,14.57,0,0,1-6.78-19.44l318.3-659.14a14.68,14.68,0,0,1,13.16-8.22,14.41,14.41,0,0,1,6.28,1.44l53.85,26a14.59,14.59,0,0,1,6.78,19.43l-318.3,659.15A14.68,14.68,0,0,1,1261.69,733.49Z"/><path d="M1526.23,18.74v1a13.86,13.86,0,0,1,6.06,1.39l53.85,26a14.07,14.07,0,0,1,6.55,18.77l-318.3,659.14a14.18,14.18,0,0,1-12.7,7.94,13.75,13.75,0,0,1-6.07-1.4l-53.85-26a14.07,14.07,0,0,1-6.55-18.77l318.3-659.14a14.18,14.18,0,0,1,12.71-7.94v-1m0,0a15.12,15.12,0,0,0-13.61,8.5l-318.3,659.15a15.1,15.1,0,0,0,7,20.1l53.84,26a15.08,15.08,0,0,0,20.11-7l318.3-659.14a15.1,15.1,0,0,0-7-20.1l-53.85-26a14.94,14.94,0,0,0-6.5-1.49Z"/><path d="M1334.75,732.66a14.31,14.31,0,0,1-6.29-1.44l-53.84-26a14.6,14.6,0,0,1-6.78-19.44l276-571.59A14.67,14.67,0,0,1,1557,106a14.31,14.31,0,0,1,6.29,1.44l53.85,26a14.58,14.58,0,0,1,6.77,19.44l-276,571.59A14.65,14.65,0,0,1,1334.75,732.66Z"/><path d="M1557,105.47v1h0a13.87,13.87,0,0,1,6.07,1.39l53.85,26a14.1,14.1,0,0,1,6.54,18.77l-276,571.6a14.16,14.16,0,0,1-12.7,7.93,13.74,13.74,0,0,1-6.07-1.39l-53.85-26a14.1,14.1,0,0,1-6.54-18.77l276-571.59a14.17,14.17,0,0,1,12.7-7.94v-1m0,0a15.11,15.11,0,0,0-13.6,8.5l-276,571.59a15.1,15.1,0,0,0,7,20.11l53.85,26a14.77,14.77,0,0,0,6.5,1.49,15.09,15.09,0,0,0,13.6-8.5l276-571.59a15.09,15.09,0,0,0-7-20.11l-53.84-26a15,15,0,0,0-6.51-1.49Z"/><path d="M1457.47,790.71a14.31,14.31,0,0,1-6.29-1.44l-53.84-26a14.6,14.6,0,0,1-6.78-19.44l256.37-530.91a14.67,14.67,0,0,1,13.15-8.21,14.28,14.28,0,0,1,6.29,1.44l53.85,26a14.57,14.57,0,0,1,6.78,19.44l-256.38,530.9A14.65,14.65,0,0,1,1457.47,790.71Z"/><path d="M1660.09,204.21v1a13.72,13.72,0,0,1,6.06,1.39l53.85,26a14.07,14.07,0,0,1,6.55,18.77L1470.17,782.28a14.16,14.16,0,0,1-12.7,7.93,13.87,13.87,0,0,1-6.07-1.39l-53.85-26a14.1,14.1,0,0,1-6.54-18.77l256.37-530.91a14.17,14.17,0,0,1,12.71-7.93v-1m0,0a15.1,15.1,0,0,0-13.61,8.5l-256.37,530.9a15.1,15.1,0,0,0,7,20.11l53.85,26a14.91,14.91,0,0,0,6.5,1.49,15.11,15.11,0,0,0,13.6-8.5L1727.45,251.8a15.1,15.1,0,0,0-7-20.1l-53.85-26a14.83,14.83,0,0,0-6.5-1.49Z"/><path d="M1366.23,816.32a14.23,14.23,0,0,1-6.28-1.44l-53.85-26a14.6,14.6,0,0,1-6.78-19.44l256.37-530.9a14.68,14.68,0,0,1,13.16-8.22,14.23,14.23,0,0,1,6.28,1.44l53.85,26a14.57,14.57,0,0,1,6.78,19.44L1379.38,808.1A14.65,14.65,0,0,1,1366.23,816.32Z"/><path d="M1568.85,229.82v1a13.77,13.77,0,0,1,6.07,1.39l53.84,26a14.09,14.09,0,0,1,6.55,18.77L1378.93,807.89a14.15,14.15,0,0,1-12.7,7.93,13.77,13.77,0,0,1-6.07-1.39l-53.84-26a14.07,14.07,0,0,1-6.55-18.77l256.38-530.91a14.15,14.15,0,0,1,12.7-7.93v-1m0,0a15.1,15.1,0,0,0-13.61,8.5l-256.37,530.9a15.1,15.1,0,0,0,7,20.11l53.85,26a14.77,14.77,0,0,0,6.5,1.49,15.07,15.07,0,0,0,13.6-8.5l256.38-530.9a15.1,15.1,0,0,0-7-20.11l-53.85-26a14.77,14.77,0,0,0-6.5-1.49Z"/><path d="M1579.75,715.66a14.31,14.31,0,0,1-6.29-1.44l-53.84-26a14.6,14.6,0,0,1-6.78-19.44l276-571.59A14.67,14.67,0,0,1,1802,89a14.31,14.31,0,0,1,6.29,1.44l53.85,26a14.58,14.58,0,0,1,6.77,19.44l-276,571.59A14.65,14.65,0,0,1,1579.75,715.66Z"/><path d="M1802,88.47v1h0a13.87,13.87,0,0,1,6.07,1.39l53.85,26a14.1,14.1,0,0,1,6.54,18.77l-276,571.6a14.16,14.16,0,0,1-12.7,7.93,13.74,13.74,0,0,1-6.07-1.39l-53.85-26a14.1,14.1,0,0,1-6.54-18.77l276-571.59a14.17,14.17,0,0,1,12.7-7.94v-1m0,0a15.11,15.11,0,0,0-13.6,8.5l-276,571.59a15.1,15.1,0,0,0,7,20.11l53.85,26a14.77,14.77,0,0,0,6.5,1.49,15.09,15.09,0,0,0,13.6-8.5l276-571.59a15.09,15.09,0,0,0-7-20.11l-53.84-26a15,15,0,0,0-6.51-1.49Z"/><path d="M1735.47,662.71a14.31,14.31,0,0,1-6.29-1.44l-53.84-26a14.6,14.6,0,0,1-6.78-19.44L1924.93,84.92a14.67,14.67,0,0,1,13.15-8.21,14.28,14.28,0,0,1,6.29,1.44l53.85,26a14.57,14.57,0,0,1,6.78,19.44l-256.38,530.9A14.65,14.65,0,0,1,1735.47,662.71Z"/><path d="M1938.09,76.21v1a13.72,13.72,0,0,1,6.06,1.39l53.85,26a14.07,14.07,0,0,1,6.55,18.77L1748.17,654.28a14.16,14.16,0,0,1-12.7,7.93,13.87,13.87,0,0,1-6.07-1.39l-53.85-26a14.1,14.1,0,0,1-6.54-18.77L1925.38,85.14a14.17,14.17,0,0,1,12.71-7.93v-1m0,0a15.1,15.1,0,0,0-13.61,8.5l-256.37,530.9a15.1,15.1,0,0,0,7,20.11l53.85,26a14.91,14.91,0,0,0,6.5,1.49,15.11,15.11,0,0,0,13.6-8.5L2005.45,123.8a15.1,15.1,0,0,0-7-20.1l-53.85-26a14.83,14.83,0,0,0-6.5-1.49Z"/><path d="M1781.47,746.71a14.31,14.31,0,0,1-6.29-1.44l-53.84-26a14.6,14.6,0,0,1-6.78-19.44l256.37-530.91a14.67,14.67,0,0,1,13.15-8.21,14.28,14.28,0,0,1,6.29,1.44l53.85,26a14.57,14.57,0,0,1,6.78,19.44l-256.38,530.9A14.65,14.65,0,0,1,1781.47,746.71Z"/><path d="M1984.09,160.21v1a13.72,13.72,0,0,1,6.06,1.39l53.85,26a14.07,14.07,0,0,1,6.55,18.77L1794.17,738.28a14.16,14.16,0,0,1-12.7,7.93,13.87,13.87,0,0,1-6.07-1.39l-53.85-26a14.1,14.1,0,0,1-6.54-18.77l256.37-530.91a14.17,14.17,0,0,1,12.71-7.93v-1m0,0a15.1,15.1,0,0,0-13.61,8.5l-256.37,530.9a15.1,15.1,0,0,0,7,20.11l53.85,26a14.91,14.91,0,0,0,6.5,1.49,15.11,15.11,0,0,0,13.6-8.5L2051.45,207.8a15.1,15.1,0,0,0-7-20.1l-53.85-26a14.83,14.83,0,0,0-6.5-1.49Z"/><path d="M1859.47,752.71a14.31,14.31,0,0,1-6.29-1.44l-53.84-26a14.6,14.6,0,0,1-6.78-19.44l256.37-530.91a14.67,14.67,0,0,1,13.15-8.21,14.28,14.28,0,0,1,6.29,1.44l53.85,26a14.57,14.57,0,0,1,6.78,19.44l-256.38,530.9A14.65,14.65,0,0,1,1859.47,752.71Z"/><path d="M2062.09,166.21v1a13.72,13.72,0,0,1,6.06,1.39l53.85,26a14.07,14.07,0,0,1,6.55,18.77L1872.17,744.28a14.16,14.16,0,0,1-12.7,7.93,13.87,13.87,0,0,1-6.07-1.39l-53.85-26a14.1,14.1,0,0,1-6.54-18.77l256.37-530.91a14.17,14.17,0,0,1,12.71-7.93v-1m0,0a15.1,15.1,0,0,0-13.61,8.5l-256.37,530.9a15.1,15.1,0,0,0,7,20.11l53.85,26a14.91,14.91,0,0,0,6.5,1.49,15.11,15.11,0,0,0,13.6-8.5L2129.45,213.8a15.1,15.1,0,0,0-7-20.1l-53.85-26a14.83,14.83,0,0,0-6.5-1.49Z"/><path d="M1643.23,732.32a14.23,14.23,0,0,1-6.28-1.44l-53.85-26a14.6,14.6,0,0,1-6.78-19.44l256.37-530.9a14.68,14.68,0,0,1,13.16-8.22,14.23,14.23,0,0,1,6.28,1.44l53.85,26a14.57,14.57,0,0,1,6.78,19.44L1656.38,724.1A14.65,14.65,0,0,1,1643.23,732.32Z"/><path d="M1845.85,145.82v1a13.77,13.77,0,0,1,6.07,1.39l53.84,26a14.09,14.09,0,0,1,6.55,18.77L1655.93,723.89a14.15,14.15,0,0,1-12.7,7.93,13.77,13.77,0,0,1-6.07-1.39l-53.84-26a14.07,14.07,0,0,1-6.55-18.77l256.38-530.91a14.15,14.15,0,0,1,12.7-7.93v-1m0,0a15.1,15.1,0,0,0-13.61,8.5l-256.37,530.9a15.1,15.1,0,0,0,7,20.11l53.85,26a14.77,14.77,0,0,0,6.5,1.49,15.07,15.07,0,0,0,13.6-8.5l256.38-530.9a15.1,15.1,0,0,0-7-20.11l-53.85-26a14.77,14.77,0,0,0-6.5-1.49Z"/></svg>